<svg xmlns="http://www.w3.org/2000/svg" viewBox="0 0 38 26.206">
  <g id="Logo" transform="translate(-398.915 -497.007)">
    <path id="Path_2223" data-name="Path 2223" d="M473.782,497.007h0a10.753,10.753,0,0,0-1.314.082,10.373,10.373,0,0,0-5.657,2.6,10.021,10.021,0,0,0-.83.84q-.274.309-.522.639a10.336,10.336,0,0,0-2,4.943,10.463,10.463,0,0,0-.081,1.3,5.187,5.187,0,0,1-.7,2.6c-.043.075-.09.15-.138.224a5,5,0,0,1-.467.616,5.2,5.2,0,0,1-2.6,1.6v5.285a10.362,10.362,0,0,0,5.672-2.6,10.045,10.045,0,0,0,.832-.841q.272-.307.519-.638a9.932,9.932,0,0,0,.69-1.04,10.333,10.333,0,0,0,1.065-2.6,10.437,10.437,0,0,0,.328-2.6,5.19,5.19,0,0,1,.695-2.6c.045-.075.09-.15.138-.222a5.208,5.208,0,0,1,5.653-2.218v-5.284A10.485,10.485,0,0,0,473.782,497.007Z" transform="translate(-38.151 0)" fill="#fff"/>
    <path id="Path_2224" data-name="Path 2224" d="M443.25,498.547c-.075-.047-.152-.094-.228-.138a10.364,10.364,0,0,0-3.9-1.321,10.364,10.364,0,0,0-1.3-.081h0a10.315,10.315,0,0,0-5.2,1.4,10.492,10.492,0,0,0-4.874,6.461,10.247,10.247,0,0,0-.247,1.312c-.022.171-.037.344-.05.517l-.03-.031v11.3a5.222,5.222,0,0,0,5.2,5.243v-6.635a10.276,10.276,0,0,0,3.9,1.323,10.11,10.11,0,0,0,1.284.081h.018v-5.243a5.228,5.228,0,0,1-5.04-3.933,5.326,5.326,0,0,1,0-2.622,5.185,5.185,0,0,1,8.941-2.157,5.018,5.018,0,0,1,.467.621,11.544,11.544,0,0,1,.677-1.96c.05-.112.208-.436.208-.436a11.6,11.6,0,0,1,1.168-1.872q.262-.345.552-.668A10.407,10.407,0,0,0,443.25,498.547Z" transform="translate(-17.941 0)" fill="#fff"/>
    <path id="Path_2225" data-name="Path 2225" d="M408.164,512.606c-.049-.011-.1-.02-.146-.033a5.242,5.242,0,0,1-3.738-3.767,5.326,5.326,0,0,1,0-2.622,5.193,5.193,0,0,1,5.04-3.933c.078,0,.155,0,.232.008l0-.008a10.286,10.286,0,0,1,.688-1.049,10.45,10.45,0,0,1,3.122-2.792c.189-.11.383-.212.579-.311-.237-.119-.477-.23-.723-.329a10.209,10.209,0,0,0-2.6-.683,10.364,10.364,0,0,0-1.3-.081h0a10.315,10.315,0,0,0-5.2,1.4,10.492,10.492,0,0,0-4.874,6.461,10.252,10.252,0,0,0-.247,1.312c-.022.171-.037.344-.05.517l-.03-.031v11.3a5.222,5.222,0,0,0,5.2,5.243v-6.635a10.276,10.276,0,0,0,3.9,1.323c.048.006.1.008.146.014Z" transform="translate(0 0)" fill="#fff"/>
  </g>
</svg>